<svg width="164" height="164" viewBox="0 0 164 164" fill="none" xmlns="http://www.w3.org/2000/svg">
<path opacity="0.5" d="M150.333 82C150.333 119.74 119.741 150.333 82 150.333C44.2595 150.333 13.6667 119.74 13.6667 82C13.6667 44.2595 44.2595 13.6666 82 13.6666C119.741 13.6666 150.333 44.2595 150.333 82Z" fill="#A200FF"/>
<path d="M114.848 129.909C105.184 136.554 93.7279 140.102 82 140.083C70.2721 140.102 58.8159 136.554 49.1522 129.909C45.0248 127.073 43.2618 121.674 45.6672 117.281C50.635 108.172 60.885 102.5 82 102.5C103.115 102.5 113.365 108.172 118.34 117.281C120.731 121.674 118.975 127.073 114.848 129.909ZM82 82C87.4369 82 92.6512 79.8402 96.4957 75.9957C100.34 72.1512 102.5 66.9369 102.5 61.5C102.5 56.0631 100.34 50.8488 96.4957 47.0043C92.6512 43.1598 87.4369 41 82 41C76.5631 41 71.3488 43.1598 67.5043 47.0043C63.6598 50.8488 61.5 56.0631 61.5 61.5C61.5 66.9369 63.6598 72.1512 67.5043 75.9957C71.3488 79.8402 76.5631 82 82 82Z" fill="white"/>
</svg>
