<svg width="164" height="164" viewBox="0 0 164 164" fill="none" xmlns="http://www.w3.org/2000/svg">
<path fill-rule="evenodd" clip-rule="evenodd" d="M150.333 102.5V123C150.333 135.888 150.333 142.325 146.329 146.329C142.325 150.333 135.888 150.333 123 150.333C110.112 150.333 103.675 150.333 99.671 146.329C95.6666 142.325 95.6666 135.888 95.6666 123V102.5C95.6666 89.6123 95.6666 83.1753 99.671 79.171C103.675 75.1666 110.112 75.1666 123 75.1666C135.888 75.1666 142.325 75.1666 146.329 79.171C150.333 83.1753 150.333 89.6123 150.333 102.5ZM111.042 136.667C111.042 135.307 111.582 134.004 112.543 133.043C113.504 132.082 114.807 131.542 116.167 131.542H129.833C131.193 131.542 132.496 132.082 133.457 133.043C134.418 134.004 134.958 135.307 134.958 136.667C134.958 138.026 134.418 139.329 133.457 140.291C132.496 141.252 131.193 141.792 129.833 141.792H116.167C114.807 141.792 113.504 141.252 112.543 140.291C111.582 139.329 111.042 138.026 111.042 136.667Z" fill="white"/>
<path d="M54.6666 116.167C35.3351 116.167 25.6728 116.167 19.6663 110.16C15.7781 106.272 14.1518 100.846 13.6666 92.25V88.8334H85.526V92.25C85.4166 95.2362 85.4166 98.482 85.4166 101.885V123.615C85.4166 129.526 85.4166 134.952 86.0043 139.359C86.6603 144.218 88.191 149.356 92.4208 153.572L92.5916 153.75H54.6666C53.3074 153.75 52.0038 153.21 51.0427 152.249C50.0816 151.288 49.5416 149.984 49.5416 148.625C49.5416 147.266 50.0816 145.962 51.0427 145.001C52.0038 144.04 53.3074 143.5 54.6666 143.5H76.875V116.167H54.6666Z" fill="white"/>
<path opacity="0.5" d="M68.6879 14H96.0213C121.79 14 134.677 14 142.679 22.0087C150.681 30.0173 150.688 42.8982 150.688 68.6667V69.6097C147.217 67.3342 143.383 66.3297 139.714 65.8445C135.313 65.25 129.88 65.25 123.97 65.25H122.74C116.829 65.25 111.403 65.25 106.996 65.8445C102.137 66.4937 96.9984 68.0312 92.7823 72.2542C88.7643 76.2722 87.1789 81.1102 86.4683 85.75V89.1667H14.0213V85.75C13.9734 82.675 14.0213 79.272 14.0213 75.5V68.6667C14.0213 42.8982 14.0213 30.0105 22.0299 22.0087C30.0386 14.0068 42.9194 14 68.6879 14Z" fill="#A200FF"/>
</svg>
