<svg width="164" height="164" viewBox="0 0 164 164" fill="none" xmlns="http://www.w3.org/2000/svg">
<path opacity="0.5" d="M44.4167 123V122.385C44.4167 116.474 44.4167 111.048 45.0112 106.641C45.6603 101.782 47.1978 96.6438 51.4208 92.4276C55.6438 88.1978 60.7825 86.6603 65.6342 86.0043C70.0485 85.4166 75.4742 85.4166 81.3918 85.4166H82.6082C88.5258 85.4166 93.9515 85.4166 98.359 86.0111C103.217 86.6603 108.356 88.1978 112.572 92.4208C116.802 96.6438 118.34 101.782 118.996 106.634C119.576 110.987 119.583 116.31 119.583 122.125C137.165 118.367 150.333 102.91 150.333 84.4053C150.333 67.527 139.352 53.1633 124.059 47.9358C121.886 28.659 105.336 13.6666 85.2527 13.6666C63.6867 13.6666 46.207 30.9413 46.207 52.2545C46.207 56.9695 47.0612 61.4795 48.626 65.6615C46.757 65.3001 44.8579 65.1171 42.9543 65.1148C26.7798 65.1216 13.6667 78.0776 13.6667 94.0608C13.6667 110.044 26.7798 123 42.9543 123H44.4167Z" fill="#A200FF"/>
<path fill-rule="evenodd" clip-rule="evenodd" d="M82 150.333C69.1123 150.333 62.6753 150.333 58.671 146.329C54.6667 142.325 54.6667 135.888 54.6667 123C54.6667 110.112 54.6667 103.675 58.671 99.671C62.6753 95.6666 69.1123 95.6666 82 95.6666C94.8877 95.6666 101.325 95.6666 105.329 99.671C109.333 103.675 109.333 110.112 109.333 123C109.333 135.888 109.333 142.325 105.329 146.329C101.325 150.333 94.8877 150.333 82 150.333ZM73.0757 107.625C72.2203 106.77 71.0604 106.291 69.8513 106.291C68.6422 106.292 67.4829 106.773 66.6284 107.628C65.7739 108.484 65.2942 109.644 65.2949 110.853C65.2955 112.062 65.7764 113.221 66.6318 114.076L75.5562 123L66.6318 131.924C65.8115 132.786 65.3603 133.934 65.3748 135.123C65.3893 136.313 65.8683 137.449 66.7095 138.291C67.5506 139.132 68.6873 139.611 69.8768 139.625C71.0662 139.64 72.2143 139.189 73.0757 138.368L82 129.444L90.9243 138.368C91.7857 139.189 92.9338 139.64 94.1232 139.625C95.3127 139.611 96.4494 139.132 97.2905 138.291C98.1317 137.449 98.6107 136.313 98.6252 135.123C98.6397 133.934 98.1886 132.786 97.3682 131.924L88.4438 123L97.3682 114.076C98.1886 113.214 98.6397 112.066 98.6252 110.877C98.6107 109.687 98.1317 108.551 97.2905 107.709C96.4494 106.868 95.3127 106.389 94.1232 106.375C92.9338 106.36 91.7857 106.811 90.9243 107.632L82 116.556L73.0757 107.625Z" fill="white"/>
</svg>
