<svg width="164" height="164" viewBox="0 0 164 164" fill="none" xmlns="http://www.w3.org/2000/svg">
<path fill-rule="evenodd" clip-rule="evenodd" d="M22.9463 87.3232C18.778 93.7534 20.5 102.698 23.9371 120.588C26.4176 133.469 27.6545 139.906 31.9458 144.177C33.0665 145.288 34.3056 146.265 35.6631 147.108C40.877 150.333 47.7991 150.333 61.6503 150.333H109.183C123.034 150.333 129.956 150.333 135.17 147.108C136.528 146.265 137.767 145.288 138.887 144.177C143.179 139.906 144.422 133.469 146.896 120.588C150.333 102.698 152.055 93.7534 147.887 87.3232C146.808 85.672 145.496 84.1852 143.992 82.9089C138.047 77.8864 128.419 77.8864 109.183 77.8864H61.6503C42.4145 77.8864 32.7931 77.8864 26.8413 82.9089C25.3374 84.1852 24.0255 85.672 22.9463 87.3232ZM66.2491 117.404C66.2491 114.67 68.593 112.463 71.4766 112.463H99.3566C102.24 112.463 104.584 114.67 104.584 117.404C104.584 120.137 102.24 122.344 99.3566 122.344H71.4766C68.593 122.344 66.2491 120.13 66.2491 117.404Z" fill="white"/>
<path opacity="0.5" d="M24.436 85.3142C25.1649 84.4486 25.9667 83.6469 26.8414 82.9089C32.7864 77.8864 42.4145 77.8864 61.6504 77.8864H109.183C128.419 77.8864 138.04 77.8864 143.992 82.9089C144.867 83.6469 145.671 84.4509 146.404 85.321V66.666C146.404 60.4477 146.404 55.3022 145.817 51.1954C145.202 46.8562 143.862 43.0159 140.657 39.852C140.133 39.3352 139.581 38.8471 139.004 38.3897C135.505 35.6017 131.316 34.4605 126.567 33.9344C121.996 33.4287 116.235 33.4287 109.176 33.4287H106.764C100.054 33.4287 97.6484 33.3877 95.4685 32.8342C94.2038 32.5184 92.976 32.0695 91.8059 31.4949C89.8652 30.5382 88.1705 29.0964 83.4214 24.8802L80.1824 22.0102C78.8157 20.8075 77.8932 19.9875 76.9024 19.2564C72.5285 16.0916 67.3673 14.1931 61.9852 13.7692C60.4907 13.6736 58.993 13.6394 57.4957 13.6667H56.6962C52.3229 13.6667 49.4324 13.6667 46.9245 14.0835C35.957 15.9149 27.0874 23.5819 24.9212 33.7294C24.436 36.0322 24.436 38.6767 24.4429 42.4965L24.436 85.3142Z" fill="#A200FF"/>
</svg>
