<svg width="63" height="63" viewBox="0 0 63 63" fill="none" xmlns="http://www.w3.org/2000/svg">
<path opacity="0.5" fill-rule="evenodd" clip-rule="evenodd" d="M36.9701 6.12693C35.9981 5.7273 34.7656 5.72729 32.3008 5.72729C29.8359 5.72729 28.6035 5.7273 27.6314 6.12693C26.3352 6.65977 25.3054 7.68182 24.7685 8.9682C24.5234 9.55544 24.4275 10.2384 24.3899 11.2345C24.3348 12.6985 23.5783 14.0535 22.3 14.786C21.0216 15.5184 19.461 15.4911 18.1559 14.8065C17.2679 14.3407 16.624 14.0817 15.989 13.9987C14.598 13.817 13.1912 14.1911 12.0782 15.0387C11.2434 15.6744 10.6272 16.7337 9.39476 18.8521C8.16235 20.9706 7.54616 22.0298 7.40882 23.0652C7.22567 24.4456 7.60262 25.8418 8.45672 26.9465C8.84656 27.4507 9.39442 27.8744 10.2447 28.4047C11.4948 29.1843 12.2991 30.5123 12.299 31.9773C12.299 33.4423 11.4947 34.77 10.2447 35.5494C9.39429 36.0799 8.84632 36.5038 8.45646 37.0081C7.60236 38.1127 7.22544 39.5087 7.40856 40.8892C7.5459 41.9245 8.16211 42.9839 9.3945 45.1023C10.6269 47.2207 11.2431 48.2801 12.0779 48.9156C13.191 49.7632 14.5977 50.1373 15.9887 49.9557C16.6237 49.8727 17.2675 49.6136 18.1555 49.1479C19.4606 48.4633 21.0214 48.436 22.2998 49.1684C23.5783 49.9011 24.3348 51.2561 24.3899 52.7203C24.4275 53.7162 24.5234 54.3993 24.7685 54.9865C25.3054 56.2727 26.3352 57.2949 27.6314 57.8278C28.6035 58.2273 29.8359 58.2273 32.3008 58.2273C34.7656 58.2273 35.9981 58.2273 36.9701 57.8278C38.2663 57.2949 39.2961 56.2727 39.8329 54.9865C40.0781 54.3993 40.1742 53.7162 40.2117 52.7201C40.2669 51.2561 41.0231 49.9011 42.3015 49.1684C43.5799 48.4358 45.1407 48.4633 46.4458 49.1479C47.3339 49.6136 47.9775 49.8724 48.6125 49.9554C50.0035 50.1373 51.4102 49.7632 52.5232 48.9156C53.3583 48.2799 53.9743 47.2207 55.2068 45.102C56.4392 42.9837 57.0553 41.9245 57.1929 40.8892C57.3758 39.5087 56.9989 38.1124 56.145 37.0078C55.7549 36.5036 55.207 36.0796 54.3565 35.5494C53.1068 34.77 52.3025 33.442 52.3025 31.977C52.3025 30.512 53.1068 29.1846 54.3565 28.4052C55.2073 27.8747 55.7551 27.451 56.1452 26.9465C56.9991 25.842 57.3761 24.4458 57.1931 23.0653C57.0556 22.03 56.4395 20.9707 55.207 18.8523C53.9746 16.7338 53.3585 15.6746 52.5235 15.0389C51.4105 14.1912 50.0038 13.8172 48.6128 13.9989C47.9778 14.0819 47.3339 14.3409 46.4461 14.8066C45.141 15.4912 43.5801 15.5186 42.3018 14.7861C41.0234 14.0536 40.2669 12.6984 40.2115 11.2344C40.1739 10.2383 40.0781 9.55541 39.8329 8.9682C39.2961 7.68182 38.2663 6.65977 36.9701 6.12693Z" fill="#A200FF"/>
<path d="M40.2351 31.9773C40.2351 36.3267 36.6827 39.8523 32.3002 39.8523C27.9178 39.8523 24.3652 36.3267 24.3652 31.9773C24.3652 27.6279 27.9178 24.1023 32.3002 24.1023C36.6827 24.1023 40.2351 27.6279 40.2351 31.9773Z" fill="white"/>
</svg>
