<svg width="69" height="70" viewBox="0 0 69 70" fill="none" xmlns="http://www.w3.org/2000/svg">
<path opacity="0.5" d="M63.25 46.6659V43.7492C63.25 35.4997 63.2494 31.3762 60.7232 28.8133C58.1969 26.2505 54.1311 26.2505 45.9994 26.2505H22.9993C14.8676 26.2505 10.8017 26.2505 8.27554 28.8133C5.75 31.3756 5.75 35.4974 5.75 43.7428V43.7492V46.6659C5.75 54.9154 5.75 59.0402 8.2762 61.603C10.8024 64.1659 14.8683 64.1659 23 64.1659H46C54.1316 64.1659 58.1975 64.1659 60.7237 61.603C63.25 59.0402 63.25 54.9154 63.25 46.6659Z" fill="#A200FF"/>
<path fill-rule="evenodd" clip-rule="evenodd" d="M34.5 45.9377C35.6908 45.9377 36.6563 44.9582 36.6563 43.7502V11.7469L41.488 17.4654C42.2628 18.3827 43.6241 18.4889 44.5283 17.7027C45.4325 16.9165 45.5371 15.5355 44.7623 14.6182L36.1373 4.4099C35.7276 3.92503 35.1296 3.646 34.5 3.646C33.8707 3.646 33.2727 3.92503 32.863 4.4099L24.2379 14.6182C23.4629 15.5355 23.5676 16.9165 24.4718 17.7027C25.3759 18.4889 26.7372 18.3827 27.5122 17.4654L32.3438 11.7469V43.7502C32.3438 44.9582 33.3092 45.9377 34.5 45.9377Z" fill="white"/>
</svg>
